<svg width="135" height="134" viewBox="0 0 135 134" fill="none" xmlns="http://www.w3.org/2000/svg">
<g filter="url(#filter0_d_124_114)">
<g filter="url(#filter1_d_124_114)">
<path d="M48.3 43C45.6637 43 43.5 45.1637 43.5 47.8V63.07C43.5 63.2425 43.5075 63.4037 43.53 63.58C43.5488 63.7638 43.5825 63.9437 43.62 64.12C43.7175 64.5775 43.8713 65.0125 44.07 65.41L44.1 65.44L46.32 69.4C47.16 70.84 48.7387 71.8 50.52 71.8H55.02V69.88H50.52C49.4287 69.88 48.5062 69.295 48 68.44L47.73 67.96H87.27L87 68.44C86.5087 69.2612 85.4512 69.88 84.48 69.88H79.98V71.8H84.48C86.19 71.8 87.8213 70.8737 88.68 69.4L90.9 65.44L90.93 65.41C91.1287 65.0125 91.2825 64.5775 91.38 64.12C91.4175 63.9437 91.4512 63.7638 91.47 63.58C91.4925 63.4037 91.5 63.2425 91.5 63.07V47.8C91.5 45.1637 89.3363 43 86.7 43H48.3ZM79.98 48.76H81.9V51.88L84.6 50.32L85.56 52L82.86 53.56L85.56 55.12L84.6 56.8L81.9 55.24V58.36H79.98V55.24L77.28 56.8L76.32 55.12L79.02 53.56L76.32 52L77.31 50.32L79.98 51.88V48.76ZM45.66 64.12H89.34C89.2875 64.2625 89.2575 64.405 89.19 64.54L88.35 66.04H46.65L45.81 64.54C45.7425 64.405 45.7125 64.2625 45.66 64.12ZM58.86 69.88C57.7987 69.88 56.94 70.7387 56.94 71.8C56.94 72.8612 57.7987 73.72 58.86 73.72C59.9212 73.72 60.78 72.8612 60.78 71.8C60.78 70.7387 59.9212 69.88 58.86 69.88ZM67.5 69.88C66.4387 69.88 65.58 70.7387 65.58 71.8C65.58 72.8612 66.4387 73.72 67.5 73.72C68.5612 73.72 69.42 72.8612 69.42 71.8C69.42 70.7387 68.5612 69.88 67.5 69.88ZM76.14 69.88C75.0787 69.88 74.22 70.7387 74.22 71.8C74.22 72.8612 75.0787 73.72 76.14 73.72C77.2012 73.72 78.06 72.8612 78.06 71.8C78.06 70.7387 77.2012 69.88 76.14 69.88ZM57.9 75.64C56.8387 75.64 55.98 76.4987 55.98 77.56C55.98 78.6213 56.8387 79.48 57.9 79.48C58.9613 79.48 59.82 78.6213 59.82 77.56C59.82 76.4987 58.9613 75.64 57.9 75.64ZM67.5 75.64C66.4387 75.64 65.58 76.4987 65.58 77.56C65.58 78.6213 66.4387 79.48 67.5 79.48C68.5612 79.48 69.42 78.6213 69.42 77.56C69.42 76.4987 68.5612 75.64 67.5 75.64ZM77.1 75.64C76.0387 75.64 75.18 76.4987 75.18 77.56C75.18 78.6213 76.0387 79.48 77.1 79.48C78.1613 79.48 79.02 78.6213 79.02 77.56C79.02 76.4987 78.1613 75.64 77.1 75.64ZM55.98 81.4C54.9187 81.4 54.06 82.2587 54.06 83.32C54.06 84.3812 54.9187 85.24 55.98 85.24C57.0413 85.24 57.9 84.3812 57.9 83.32C57.9 82.2587 57.0413 81.4 55.98 81.4ZM67.5 81.4C66.4387 81.4 65.58 82.2587 65.58 83.32C65.58 84.3812 66.4387 85.24 67.5 85.24C68.5612 85.24 69.42 84.3812 69.42 83.32C69.42 82.2587 68.5612 81.4 67.5 81.4ZM79.02 81.4C77.9587 81.4 77.1 82.2587 77.1 83.32C77.1 84.3812 77.9587 85.24 79.02 85.24C80.0812 85.24 80.94 84.3812 80.94 83.32C80.94 82.2587 80.0812 81.4 79.02 81.4ZM52.14 87.16C51.0787 87.16 50.22 88.0187 50.22 89.08C50.22 90.1413 51.0787 91 52.14 91C53.2013 91 54.06 90.1413 54.06 89.08C54.06 88.0187 53.2013 87.16 52.14 87.16ZM67.5 87.16C66.4387 87.16 65.58 88.0187 65.58 89.08C65.58 90.1413 66.4387 91 67.5 91C68.5612 91 69.42 90.1413 69.42 89.08C69.42 88.0187 68.5612 87.16 67.5 87.16ZM82.86 87.16C81.7987 87.16 80.94 88.0187 80.94 89.08C80.94 90.1413 81.7987 91 82.86 91C83.9212 91 84.78 90.1413 84.78 89.08C84.78 88.0187 83.9212 87.16 82.86 87.16Z" fill="url(#paint0_linear_124_114)"/>
</g>
</g>
<defs>
<filter id="filter0_d_124_114" x="0.5" y="0" width="134" height="134" filterUnits="userSpaceOnUse" color-interpolation-filters="sRGB">
<feFlood flood-opacity="0" result="BackgroundImageFix"/>
<feColorMatrix in="SourceAlpha" type="matrix" values="0 0 0 0 0 0 0 0 0 0 0 0 0 0 0 0 0 0 127 0" result="hardAlpha"/>
<feOffset/>
<feGaussianBlur stdDeviation="21.5"/>
<feComposite in2="hardAlpha" operator="out"/>
<feColorMatrix type="matrix" values="0 0 0 0 0 0 0 0 0 0 0 0 0 0 0 0 0 0 0.4 0"/>
<feBlend mode="normal" in2="BackgroundImageFix" result="effect1_dropShadow_124_114"/>
<feBlend mode="normal" in="SourceGraphic" in2="effect1_dropShadow_124_114" result="shape"/>
</filter>
<filter id="filter1_d_124_114" x="33.5" y="35" width="68" height="68" filterUnits="userSpaceOnUse" color-interpolation-filters="sRGB">
<feFlood flood-opacity="0" result="BackgroundImageFix"/>
<feColorMatrix in="SourceAlpha" type="matrix" values="0 0 0 0 0 0 0 0 0 0 0 0 0 0 0 0 0 0 127 0" result="hardAlpha"/>
<feOffset dy="2"/>
<feGaussianBlur stdDeviation="5"/>
<feComposite in2="hardAlpha" operator="out"/>
<feColorMatrix type="matrix" values="0 0 0 0 0 0 0 0 0 0 0 0 0 0 0 0 0 0 0.25 0"/>
<feBlend mode="normal" in2="BackgroundImageFix" result="effect1_dropShadow_124_114"/>
<feBlend mode="normal" in="SourceGraphic" in2="effect1_dropShadow_124_114" result="shape"/>
</filter>
<linearGradient id="paint0_linear_124_114" x1="67.5" y1="43" x2="67.5" y2="91" gradientUnits="userSpaceOnUse">
<stop stop-color="#27D71C"/>
<stop offset="1" stop-color="#ABE605"/>
</linearGradient>
</defs>
</svg>
