<svg width="22" height="32" viewBox="0 0 22 32" fill="none" xmlns="http://www.w3.org/2000/svg">
<path d="M21.1545 16.6139C18.8019 8.877 11.8781 0.619812 11.5261 0.202627C11.4711 0.142438 11.4042 0.094365 11.3296 0.0614743C11.255 0.0285835 11.1744 0.0115967 11.0929 0.0115967C11.0114 0.0115967 10.9307 0.0285835 10.8562 0.0614743C10.7816 0.094365 10.7147 0.142438 10.6597 0.202627C10.3077 0.619812 3.38265 8.87581 1.02887 16.6139C0.5465 18.2008 0.240723 19.7688 0.240723 21.2397C0.240723 27.2225 5.10946 32.09 11.0923 32.09C17.0751 32.09 21.9415 27.2225 21.9415 21.2397C21.9427 19.7688 21.6369 18.202 21.1545 16.6139ZM11.0935 30.957C5.73524 30.957 1.37613 26.5979 1.37613 21.2408C1.37613 19.7866 1.69969 18.2151 2.21643 16.6151C4.27509 10.2447 9.54443 3.39315 11.0935 1.46722C12.6425 3.39315 17.9118 10.2447 19.9681 16.6151C20.4849 18.2163 20.8084 19.7866 20.8084 21.2408C20.8084 26.5979 16.4505 30.957 11.0935 30.957Z" fill="#EAEAEC"/>
<path d="M5.01097 16.6134C4.41837 18.1186 4.02252 19.6261 4.02252 20.9986C4.02252 22.8737 4.76742 24.6721 6.09334 25.998C7.41927 27.3239 9.21761 28.0688 11.0927 28.0688C12.9679 28.0688 14.7662 27.3239 16.0921 25.998C17.4181 24.6721 18.163 22.8737 18.163 20.9986C18.163 19.6261 17.7671 18.1186 17.1745 16.6134H5.01097Z" fill="#EAEAEC"/>
</svg>
