<svg width="46" height="54" viewBox="0 0 46 54" fill="none" xmlns="http://www.w3.org/2000/svg">
<g filter="url(#filter0_d_151_164)">
<g filter="url(#filter1_i_151_164)">
<path d="M23 12.6669C20.7899 12.6669 18.6702 13.5448 17.1074 15.1076C15.5446 16.6704 14.6667 18.7901 14.6667 21.0002C14.6667 23.2103 15.5446 25.3299 17.1074 26.8927C18.6702 28.4555 20.7899 29.3335 23 29.3335C25.2101 29.3335 27.3298 28.4555 28.8926 26.8927C30.4554 25.3299 31.3333 23.2103 31.3333 21.0002C31.3333 18.7901 30.4554 16.6704 28.8926 15.1076C27.3298 13.5448 25.2101 12.6669 23 12.6669ZM10.5 21.0002C10.5003 18.8061 11.0782 16.6507 12.1755 14.7506C13.2728 12.8506 14.8509 11.2728 16.7511 10.176C18.6514 9.07911 20.807 8.50176 23.0011 8.50195C25.1952 8.50215 27.3507 9.07988 29.2508 10.1771C31.1509 11.2743 32.7287 12.8523 33.8257 14.7525C34.9226 16.6528 35.5001 18.8083 35.5 21.0024C35.4999 23.1965 34.9223 25.352 33.8252 27.2521C32.7281 29.1523 31.1502 30.7302 29.25 31.8273V35.5835C29.25 37.2411 28.5915 38.8308 27.4194 40.0029C26.2473 41.175 24.6576 41.8335 23 41.8335C21.3424 41.8335 19.7527 41.175 18.5806 40.0029C17.4085 38.8308 16.75 37.2411 16.75 35.5835V31.8273C14.8492 30.7303 13.2708 29.1522 12.1737 27.2515C11.0765 25.3509 10.4993 23.1948 10.5 21.0002ZM20.9167 33.3273V35.5835C20.9167 36.1361 21.1362 36.666 21.5269 37.0567C21.9176 37.4474 22.4475 37.6669 23 37.6669C23.5525 37.6669 24.0824 37.4474 24.4731 37.0567C24.8638 36.666 25.0833 36.1361 25.0833 35.5835V33.3273C23.7041 33.5591 22.2959 33.5591 20.9167 33.3273Z" fill="#848184"/>
</g>
</g>
<defs>
<filter id="filter0_d_151_164" x="0.5" y="0.501953" width="45" height="53.3316" filterUnits="userSpaceOnUse" color-interpolation-filters="sRGB">
<feFlood flood-opacity="0" result="BackgroundImageFix"/>
<feColorMatrix in="SourceAlpha" type="matrix" values="0 0 0 0 0 0 0 0 0 0 0 0 0 0 0 0 0 0 127 0" result="hardAlpha"/>
<feOffset dy="2"/>
<feGaussianBlur stdDeviation="5"/>
<feComposite in2="hardAlpha" operator="out"/>
<feColorMatrix type="matrix" values="0 0 0 0 0 0 0 0 0 0 0 0 0 0 0 0 0 0 0.25 0"/>
<feBlend mode="normal" in2="BackgroundImageFix" result="effect1_dropShadow_151_164"/>
<feBlend mode="normal" in="SourceGraphic" in2="effect1_dropShadow_151_164" result="shape"/>
</filter>
<filter id="filter1_i_151_164" x="10.5" y="8.50195" width="25" height="33.3316" filterUnits="userSpaceOnUse" color-interpolation-filters="sRGB">
<feFlood flood-opacity="0" result="BackgroundImageFix"/>
<feBlend mode="normal" in="SourceGraphic" in2="BackgroundImageFix" result="shape"/>
<feColorMatrix in="SourceAlpha" type="matrix" values="0 0 0 0 0 0 0 0 0 0 0 0 0 0 0 0 0 0 127 0" result="hardAlpha"/>
<feOffset/>
<feGaussianBlur stdDeviation="5"/>
<feComposite in2="hardAlpha" operator="arithmetic" k2="-1" k3="1"/>
<feColorMatrix type="matrix" values="0 0 0 0 0 0 0 0 0 0 0 0 0 0 0 0 0 0 0.1 0"/>
<feBlend mode="normal" in2="shape" result="effect1_innerShadow_151_164"/>
</filter>
</defs>
</svg>
