<svg width="42" height="42" viewBox="0 0 42 42" fill="none" xmlns="http://www.w3.org/2000/svg">
<g filter="url(#filter0_i_151_272)">
<path d="M21.0001 0.166992C21.5526 0.166992 22.0825 0.386486 22.4732 0.777186C22.8639 1.16789 23.0834 1.69779 23.0834 2.25033V4.33366C23.0834 4.88619 22.8639 5.4161 22.4732 5.8068C22.0825 6.1975 21.5526 6.41699 21.0001 6.41699C20.4475 6.41699 19.9176 6.1975 19.5269 5.8068C19.1362 5.4161 18.9167 4.88619 18.9167 4.33366V2.25033C18.9167 1.69779 19.1362 1.16789 19.5269 0.777186C19.9176 0.386486 20.4475 0.166992 21.0001 0.166992ZM5.9855 5.98574C6.37618 5.59518 6.90599 5.37577 7.45842 5.37577C8.01084 5.37577 8.54065 5.59518 8.93133 5.98574L11.0147 8.06908C11.3942 8.462 11.6041 8.98825 11.5994 9.5345C11.5947 10.0807 11.3756 10.6033 10.9893 10.9895C10.603 11.3758 10.0805 11.5949 9.53425 11.5996C8.98801 11.6044 8.46175 11.3944 8.06883 11.0149L5.9855 8.93158C5.59493 8.54089 5.37553 8.01108 5.37553 7.45866C5.37553 6.90623 5.59493 6.37643 5.9855 5.98574ZM36.0147 5.98574C36.4052 6.37643 36.6246 6.90623 36.6246 7.45866C36.6246 8.01108 36.4052 8.54089 36.0147 8.93158L33.9313 11.0149C33.7392 11.2139 33.5093 11.3726 33.2551 11.4818C33.0009 11.591 32.7275 11.6484 32.4509 11.6508C32.1743 11.6533 31.9 11.6005 31.6439 11.4958C31.3879 11.391 31.1553 11.2363 30.9597 11.0407C30.7641 10.8451 30.6094 10.6125 30.5046 10.3565C30.3999 10.1004 30.3472 9.82611 30.3496 9.54949C30.352 9.27287 30.4094 8.99949 30.5186 8.74532C30.6278 8.49114 30.7865 8.26126 30.9855 8.06908L33.0688 5.98574C33.4595 5.59518 33.9893 5.37577 34.5418 5.37577C35.0942 5.37577 35.624 5.59518 36.0147 5.98574ZM21.0001 12.667C18.7899 12.667 16.6703 13.545 15.1075 15.1078C13.5447 16.6706 12.6667 18.7902 12.6667 21.0003C12.6667 23.2105 13.5447 25.3301 15.1075 26.8929C16.6703 28.4557 18.7899 29.3337 21.0001 29.3337C23.2102 29.3337 25.3298 28.4557 26.8926 26.8929C28.4554 25.3301 29.3334 23.2105 29.3334 21.0003C29.3334 18.7902 28.4554 16.6706 26.8926 15.1078C25.3298 13.545 23.2102 12.667 21.0001 12.667ZM8.50008 21.0003C8.50039 18.8062 9.07824 16.6508 10.1755 14.7508C11.2728 12.8507 12.8509 11.273 14.7512 10.1761C16.6515 9.07925 18.8071 8.5019 21.0012 8.50209C23.1953 8.50229 25.3507 9.08002 27.2508 10.1772C29.1509 11.2744 30.7288 12.8524 31.8257 14.7527C32.9227 16.6529 33.5002 18.8084 33.5001 21.0025C33.5 23.1967 32.9224 25.3521 31.8253 27.2523C30.7282 29.1524 29.1503 30.7303 27.2501 31.8274V35.5837C27.2501 37.2413 26.5916 38.831 25.4195 40.0031C24.2474 41.1752 22.6577 41.8337 21.0001 41.8337C19.3425 41.8337 17.7528 41.1752 16.5807 40.0031C15.4086 38.831 14.7501 37.2413 14.7501 35.5837V31.8274C12.8493 30.7305 11.2709 29.1523 10.1738 27.2517C9.0766 25.351 8.49935 23.1949 8.50008 21.0003ZM18.9167 33.3274V35.5837C18.9167 36.1362 19.1362 36.6661 19.5269 37.0568C19.9176 37.4475 20.4475 37.667 21.0001 37.667C21.5526 37.667 22.0825 37.4475 22.4732 37.0568C22.8639 36.6661 23.0834 36.1362 23.0834 35.5837V33.3274C21.7042 33.5593 20.296 33.5593 18.9167 33.3274ZM0.166748 21.0003C0.166748 20.4478 0.386241 19.9179 0.776942 19.5272C1.16764 19.1365 1.69755 18.917 2.25008 18.917H4.33342C4.88595 18.917 5.41585 19.1365 5.80655 19.5272C6.19725 19.9179 6.41675 20.4478 6.41675 21.0003C6.41675 21.5529 6.19725 22.0828 5.80655 22.4735C5.41585 22.8642 4.88595 23.0837 4.33342 23.0837H2.25008C1.69755 23.0837 1.16764 22.8642 0.776942 22.4735C0.386241 22.0828 0.166748 21.5529 0.166748 21.0003ZM35.5834 21.0003C35.5834 20.4478 35.8029 19.9179 36.1936 19.5272C36.5843 19.1365 37.1142 18.917 37.6668 18.917H39.7501C40.3026 18.917 40.8325 19.1365 41.2232 19.5272C41.6139 19.9179 41.8334 20.4478 41.8334 21.0003C41.8334 21.5529 41.6139 22.0828 41.2232 22.4735C40.8325 22.8642 40.3026 23.0837 39.7501 23.0837H37.6668C37.1142 23.0837 36.5843 22.8642 36.1936 22.4735C35.8029 22.0828 35.5834 21.5529 35.5834 21.0003Z" fill="url(#paint0_linear_151_272)"/>
</g>
<defs>
<filter id="filter0_i_151_272" x="0.166748" y="0.166992" width="41.6667" height="41.6667" filterUnits="userSpaceOnUse" color-interpolation-filters="sRGB">
<feFlood flood-opacity="0" result="BackgroundImageFix"/>
<feBlend mode="normal" in="SourceGraphic" in2="BackgroundImageFix" result="shape"/>
<feColorMatrix in="SourceAlpha" type="matrix" values="0 0 0 0 0 0 0 0 0 0 0 0 0 0 0 0 0 0 127 0" result="hardAlpha"/>
<feOffset/>
<feGaussianBlur stdDeviation="5"/>
<feComposite in2="hardAlpha" operator="arithmetic" k2="-1" k3="1"/>
<feColorMatrix type="matrix" values="0 0 0 0 0 0 0 0 0 0 0 0 0 0 0 0 0 0 0.1 0"/>
<feBlend mode="normal" in2="shape" result="effect1_innerShadow_151_272"/>
</filter>
<linearGradient id="paint0_linear_151_272" x1="21.0001" y1="0.166992" x2="21.0001" y2="41.8337" gradientUnits="userSpaceOnUse">
<stop stop-color="#27D71C"/>
<stop offset="1" stop-color="#ABE605"/>
</linearGradient>
</defs>
</svg>
