<svg width="60" height="52" viewBox="0 0 60 52" fill="none" xmlns="http://www.w3.org/2000/svg">
<g filter="url(#filter0_d_151_211)">
<path d="M16.3043 8.68283C15.7565 8.68283 15.3913 9.04805 15.3913 9.59587V26.9437H17.2174V9.59587C17.2174 9.04805 16.8522 8.68283 16.3043 8.68283ZM23.6087 8.68283C23.0609 8.68283 22.6957 9.04805 22.6957 9.59587V26.9437H24.5217V9.59587C24.5217 9.04805 24.1565 8.68283 23.6087 8.68283ZM13.5652 28.7698C12.013 28.7698 10.8261 29.9567 10.8261 31.5089V36.9872C10.8261 38.5394 12.013 39.7263 13.5652 39.7263H46.4348C47.987 39.7263 49.1739 38.5394 49.1739 36.9872V31.5089C49.1739 29.9567 47.987 28.7698 46.4348 28.7698H13.5652ZM16.3043 33.335C16.8522 33.335 17.2174 33.7002 17.2174 34.2481C17.2174 34.7959 16.8522 35.1611 16.3043 35.1611C15.7565 35.1611 15.3913 34.7959 15.3913 34.2481C15.3913 33.7002 15.7565 33.335 16.3043 33.335ZM19.9565 33.335C20.5043 33.335 20.8696 33.7002 20.8696 34.2481C20.8696 34.7959 20.5043 35.1611 19.9565 35.1611C19.4087 35.1611 19.0435 34.7959 19.0435 34.2481C19.0435 33.7002 19.4087 33.335 19.9565 33.335ZM23.6087 33.335C24.1565 33.335 24.5217 33.7002 24.5217 34.2481C24.5217 34.7959 24.1565 35.1611 23.6087 35.1611C23.0609 35.1611 22.6957 34.7959 22.6957 34.2481C22.6957 33.7002 23.0609 33.335 23.6087 33.335ZM27.2609 33.335C27.8087 33.335 28.1739 33.7002 28.1739 34.2481C28.1739 34.7959 27.8087 35.1611 27.2609 35.1611C26.713 35.1611 26.3478 34.7959 26.3478 34.2481C26.3478 33.7002 26.713 33.335 27.2609 33.335ZM30.913 33.335C31.4609 33.335 31.8261 33.7002 31.8261 34.2481C31.8261 34.7959 31.4609 35.1611 30.913 35.1611C30.3652 35.1611 30 34.7959 30 34.2481C30 33.7002 30.3652 33.335 30.913 33.335Z" fill="#848184"/>
</g>
<defs>
<filter id="filter0_d_151_211" x="0.826088" y="0.682831" width="58.3478" height="51.0435" filterUnits="userSpaceOnUse" color-interpolation-filters="sRGB">
<feFlood flood-opacity="0" result="BackgroundImageFix"/>
<feColorMatrix in="SourceAlpha" type="matrix" values="0 0 0 0 0 0 0 0 0 0 0 0 0 0 0 0 0 0 127 0" result="hardAlpha"/>
<feOffset dy="2"/>
<feGaussianBlur stdDeviation="5"/>
<feComposite in2="hardAlpha" operator="out"/>
<feColorMatrix type="matrix" values="0 0 0 0 0 0 0 0 0 0 0 0 0 0 0 0 0 0 0.25 0"/>
<feBlend mode="normal" in2="BackgroundImageFix" result="effect1_dropShadow_151_211"/>
<feBlend mode="normal" in="SourceGraphic" in2="effect1_dropShadow_151_211" result="shape"/>
</filter>
</defs>
</svg>
