<svg width="17" height="32" viewBox="0 0 17 32" fill="none" xmlns="http://www.w3.org/2000/svg">
<path d="M8.5 1.79214e-08C9.82796 -0.000110164 11.1056 0.507841 12.071 1.41969C13.0364 2.33154 13.6164 3.57819 13.692 4.904L13.7 5.2L13.7016 17.9232L13.8296 18.0336C15.3206 19.3629 16.2592 21.2029 16.46 23.1904L16.4904 23.5936L16.5 24C16.5002 25.3181 16.1748 26.6158 15.5526 27.7778C14.9303 28.9398 14.0307 29.9301 12.9335 30.6606C11.8363 31.391 10.5756 31.8391 9.26353 31.9649C7.95145 32.0907 6.6286 31.8904 5.41261 31.3817C4.19662 30.873 3.12516 30.0717 2.29349 29.0491C1.46182 28.0265 0.895702 26.8142 0.645476 25.5201C0.395251 24.226 0.468668 22.8901 0.8592 21.6311C1.24973 20.3722 1.94528 19.2293 2.884 18.304L3.172 18.032L3.2984 17.9232L3.3 5.2C3.29974 3.92209 3.77005 2.68882 4.62117 1.73559C5.47229 0.782359 6.64462 0.175913 7.9144 0.032L8.2056 0.0080002L8.5 1.79214e-08ZM8.5 2.4C7.79704 2.40006 7.11982 2.66453 6.60287 3.14088C6.08591 3.61722 5.76704 4.27059 5.7096 4.9712L5.7 5.2V19.1104L5.2056 19.4704C4.26101 20.1575 3.55491 21.1227 3.18614 22.2311C2.81737 23.3394 2.80438 24.5352 3.14901 25.6513C3.49363 26.7674 4.17861 27.7477 5.10806 28.4551C6.03751 29.1626 7.16491 29.5617 8.33243 29.5966C9.49996 29.6315 10.6492 29.3004 11.6192 28.6497C12.5893 27.9991 13.3316 27.0614 13.7422 25.9679C14.1529 24.8744 14.2113 23.6799 13.9094 22.5515C13.6075 21.4232 12.9603 20.4175 12.0584 19.6752L11.7944 19.472L11.3032 19.112L11.3 5.2C11.3 4.45739 11.005 3.7452 10.4799 3.2201C9.9548 2.695 9.24261 2.4 8.5 2.4Z" fill="#EAEAEC"/>
<path d="M8.5 9.33337C8.81813 9.33337 9.12323 9.46161 9.34819 9.68988C9.57314 9.91815 9.69952 10.2277 9.69952 10.5506V20.069C10.6112 20.3598 11.3902 20.9723 11.8954 21.7955C12.4006 22.6187 12.5987 23.5983 12.4537 24.5568C12.3087 25.5154 11.8303 26.3896 11.1051 27.0212C10.3798 27.6528 9.45571 28 8.5 28C7.54429 28 6.62016 27.6528 5.89493 27.0212C5.16969 26.3896 4.69128 25.5154 4.5463 24.5568C4.40132 23.5983 4.59936 22.6187 5.10457 21.7955C5.60978 20.9723 6.38876 20.3598 7.30048 20.069V10.5506C7.30048 10.2277 7.42686 9.91815 7.65181 9.68988C7.87677 9.46161 8.18187 9.33337 8.5 9.33337Z" fill="#EAEAEC"/>
</svg>
